# xmcd
#
# Track frame offsets:
#	150
#	9908
#	25869
#	39336
#	54424
#	64579
#	75828
#	92033
#	102834
#	119084
#
# Disc length: 1716 seconds
#
# Revision: 1
# Processed by: cddbd v1.5.2PL0 Copyright (c) Steve Scherf et al.
# Submitted via: audiograbber 1.83.01
#
DISCID=6b06b20a
DTITLE=The Foundation Quartet - Still Carring On
DYEAR=1900
DGENRE=Gospel
TTITLE0=I'll Be In The Rapture
TTITLE1=In THe Shadow Of The Cross
TTITLE2=He's Still Walking
TTITLE3=Hide Through Me
TTITLE4=Everyday
TTITLE5=He's The Foundation
TTITLE6=Help Is On The Way
TTITLE7=Cool Drink
TTITLE8=Glory Road
TTITLE9=No Regrets
EXTD=
EXTT0=
EXTT1=
EXTT2=
EXTT3=
EXTT4=
EXTT5=
EXTT6=
EXTT7=
EXTT8=
EXTT9=
PLAYORDER=
